<svg version="1.2" xmlns="http://www.w3.org/2000/svg" viewBox="0 0 150 150" width="150" height="150">
	<title>Vector Smart Object-pdf</title>
	<defs>
		<clipPath clipPathUnits="userSpaceOnUse" id="cp1">
			<path d="m0 0h150v150h-150z"/>
		</clipPath>
	</defs>
	<style>
		.s0 { fill: #3f3f3f } 
	</style>
	<g id="Page 1" clip-path="url(#cp1)">
		<path id="Path 1" class="s0" d="m107.1 76.3c-2.6 2.8-5.5 5.3-8.7 7.5 16.9 0.5 30.4 14.3 30.4 31.3v15.4h-107.5v-15.4c0-17 13.5-30.8 30.3-31.3-3.2-2.2-6.2-4.7-8.7-7.5-17.5 4.3-30.4 20.1-30.4 38.8v19.8c0 2.4 2 4.4 4.4 4.4h116.2c2.4 0 4.4-2 4.4-4.4v-19.8c0-18.7-12.9-34.5-30.4-38.8z"/>
		<path id="Path 2" fill-rule="evenodd" class="s0" d="m75 84.4c-20.3 0-36.9-16.5-36.9-36.9 0-20.4 16.6-36.8 36.9-36.8 20.3 0 36.9 16.5 36.9 36.9 0 20.4-16.6 36.8-36.9 36.8zm0-64.9c-15.5 0-28.1 12.6-28.1 28.1 0 15.5 12.6 28 28.1 28 15.5 0 28.1-12.6 28.1-28.1 0-15.5-12.6-28-28.1-28z"/>
	</g>
</svg>