<svg version="1.2" xmlns="http://www.w3.org/2000/svg" viewBox="0 0 150 150" width="150" height="150">
	<title>Vector Smart Object-pdf</title>
	<defs>
		<clipPath clipPathUnits="userSpaceOnUse" id="cp1">
			<path d="m0 0h150v150h-150z"/>
		</clipPath>
	</defs>
	<style>
		.s0 { fill: #3f3f3f } 
	</style>
	<g id="Page 1" clip-path="url(#cp1)">
		<path id="Path 1" fill-rule="evenodd" class="s0" d="m30 15c2.1 0 4 1.6 4.4 3.6l2.5 11.4h101.1c2.7 0 5 2.9 4.4 5.5l-10.5 45c-0.5 2-2.4 3.5-4.4 3.5h-79.2l1.9 9h71.3c2.4 0 4.6 2.1 4.6 4.5 0 2.4-2.2 4.5-4.6 4.5h-75c-2.2 0-4.1-2.3-4.7-5l-15.4-73h-14.4c-2.5 0-4.5-2-4.5-4.5 0-2.5 2-4.5 4.5-4.5zm16.4 60h77.6l8.4-36h-93.7zm31.7 45c0 8.2-6.8 15-15 15-8.2 0-15-6.8-15-15 0-8.2 6.8-15 15-15 8.2 0 15 6.8 15 15zm42 0c0 8.2-6.8 15-15 15-8.2 0-15-6.8-15-15 0-8.2 6.8-15 15-15 8.2 0 15 6.8 15 15zm-63 0c0 3.4 2.6 6 6 6 3.4 0 6-2.6 6-6 0-3.4-2.6-6-6-6-3.4 0-6 2.6-6 6zm42 0c0 3.4 2.6 6 6 6 3.4 0 6-2.6 6-6 0-3.4-2.6-6-6-6-3.4 0-6 2.6-6 6z"/>
	</g>
</svg>