<svg version="1.2" xmlns="http://www.w3.org/2000/svg" viewBox="0 0 150 150" width="150" height="150">
	<title>Vector Smart Object-pdf</title>
	<defs>
		<clipPath clipPathUnits="userSpaceOnUse" id="cp1">
			<path d="m0 0h150v150h-150z"/>
		</clipPath>
	</defs>
	<style>
		.s0 { fill: #3f3f3f } 
	</style>
	<g id="Page 1" clip-path="url(#cp1)">
		<path id="Path 1" fill-rule="evenodd" class="s0" d="m141.3 66.4c-2.3 3.6-4.5 13.7-4.4 16.5 0.4 1.5 1.8 3 2.9 3.9 1.1 0.9 2.1 2.2 0.9 3.4-1.2 1.3-1.6 1.3-2 1.4-0.3 0.1-1.7 1.5-2.8 2.5-1.2 1-2.7 2-2.9 2.7-0.3 0.8 0.6 2.9-0.3 3.3-0.9 0.4-4.2 1.8-5.5 2.4-1.3 0.5-1.2 0.3-1.2 0.3 0 0-10.4 4.1-17.3 6.4-6.8 2.4-32.8 11.4-41.8 15-9 3.7-18.7 8.7-21 9-2.3 0.4-4.6 0.8-6.4-0.6-1.8-1.4-2.2-1.9-2.2-1.9 0 0-2.9-2.5-3-3.4-0.1-0.9-2.7-3.1-2.7-4.2 0-1.1 0.4-3.1 0.4-3.1 0 0-1.5 0-2-1.2-0.4-1.2-1-5.4-0.8-6.4 0.3-1.1 2.3-6.3 2.1-7.7-0.3-1.3-0.9-1.8-0.8-2.9 0.1-1.2 3.4-6.8 5.1-7.8 4.1 0 9 2.7 12.7 4.8 1.8 1.1 3.3 1.9 4.3 2.2q0.7 0.2 1.5 0.2c3 0 7.6-1.6 12.1-3.4q0.4-0.1 0.8-0.3c2.9 1.6 8.6-1.2 15.6-5.1 1.1-0.6 2.1-1.2 3-1.7 5.5-2.8 5.5-7.1 5.4-9.7v-0.5c0-0.8 0.1-1.4 0.1-2 0.1-1.3 0.2-2.4-0.6-3.6-0.2-0.3-0.3-0.9-0.4-1.6-0.1-1.3-0.4-3.1-1.5-5.1-2.1-3.8-6-5.1-13.8-6.4-4.6-0.8-6.1-0.7-7.3-0.6-0.9 0.1-1.5 0.1-3.4-0.3-4.4-1-17-2.5-21.6-0.8q-0.5 0-0.9 0.1c-0.9-0.6-1.4-1.2-1.4-1.2l0.3-0.5c0 0-2.6-0.9-2.5-2.3 0.1-1.4 2.3-9.1 2.3-9.1 0 0-27.4-2.3-30.4-2.9-3-0.6-2.4-3.2-2.2-4.1 0.2-0.9 0.5-2.5 1.2-3.3 0.8-0.7 2.4-2.1 3-2.3 0.6-0.1 11.3-1.6 19.4-3.6 8-2 16.8-4.8 19.8-6.2 3-1.4 2.8-0.3 5.8-2.1 3-1.8 7.3-4 9-4.4 1.7-0.4 4-0.5 4.4-0.4 0.7-0.6 7-2.2 20.6-0.9 13.6 1.3 25.6 5.1 35.6 10.3 6 3 7.8 3.4 8 6 0.3 2.7 0.2 7.3 0.3 8.7 1 2.2 4.5 8.1 4.8 17.1 2.7 1.1 4 3.8 1.7 7.4zm-35.8-18.9c0-1.6-1.4-3-3-3-1.6 0-3 1.4-3 3 0 1.6 1.4 3 3 3 1.6 0 3-1.4 3-3zm-52.2 31.1c0.2-3.1 0-10.5-2.3-14.1-1.9-0.8-3.9-1.8-4.9-2.7 5-0.4 13.4 0.5 17.5 1.4 2.2 0.6 3.1 0.5 4.1 0.4 1.1-0.1 2.4-0.2 6.7 0.5 7.9 1.4 10.6 2.6 12.1 5.2 0.9 1.7 1.1 3.1 1.2 4.3 0.2 1 0.3 1.9 0.8 2.7 0.4 0.5 0.3 0.8 0.2 2.1 0 0.6-0.1 1.2-0.1 2.1v0.5c0.1 2.6 0.1 5.4-4 7.6-1 0.5-2 1.1-3.2 1.7-3.8 2.1-11.8 6.5-13.3 5l-0.6-0.5-0.7 0.2q-0.6 0.3-1.5 0.6c-3.2 1.2-9.8 3.7-12 3.1-0.8-0.2-2.2-1-3.8-2-2.9-1.6-6.6-3.7-10.2-4.6 2-1.4 5.6-3.7 6.1-3.9 0.7-0.3 1.6 0 2.3 0.4 3.6-3 5.4-6.9 5.6-10z"/>
	</g>
</svg>