<svg version="1.2" xmlns="http://www.w3.org/2000/svg" viewBox="0 0 150 150" width="150" height="150">
	<title>Vector Smart Object-pdf</title>
	<defs>
		<clipPath clipPathUnits="userSpaceOnUse" id="cp1">
			<path d="m0 0h150v150h-150z"/>
		</clipPath>
	</defs>
	<style>
		.s0 { fill: #3f3f3f } 
	</style>
	<g id="Page 1" clip-path="url(#cp1)">
		<path id="Path 1" fill-rule="evenodd" class="s0" d="m127.3 124.2q-0.1 0.3-0.3 0.7c-1.2 3-2.6 6.3-5.9 6.6-0.6 0.1-54.7 4.8-64.1 4.8h-0.1c-8.3 0-14.5-2.2-18.4-6.5-3.6-4-5.2-9.8-4.5-17 0.7-7.5 2.9-13.6 4.8-19 2-5.7 3.8-10.6 3-15.3-1.5-8.7-15.2-15.8-24.5-17.6-7-1.3-10.2-3.3-9.8-6.1 0.4-2.6 4.7-4.7 5.2-5v0.1c8.5-18.5 30.3-41.7 73.8-35 44.2 6.7 76.3 54.4 40.8 109.3zm-1.7 0.5c-8.9 0.8-54.7 4.6-61.3 5-7.3 0.5-24.3-0.4-24.3-12.8 0-12.4 12.1-29.5 7.7-41.8-4.3-12.3-13.9-18.4-34.7-23.8-1.6 0.8-3.9 2.4-4.1 3.7-0.2 1.9 2.7 3.4 8.6 4.5 9.4 1.8 24 9 25.7 18.8 0.8 5.1-1 10.1-3.1 16-1.9 5.3-4 11.3-4.7 18.6-0.6 6.9 0.8 12.2 4.2 15.9 3.6 4 9.4 6.1 17.4 6.1 8.6 0 57.3-4.2 64-4.8 2.3-0.2 3.5-2.8 4.6-5.4zm-70.2-16.1c0 1.6 1.2 2.8 2.8 2.8 1.6 0 2.8-1.2 2.8-2.8 0-1.6-1.2-2.8-2.8-2.8-1.6 0-2.8 1.2-2.8 2.8zm-27.6-59.7c0 1.6 1.3 2.9 2.8 2.9 1.6 0 2.9-1.3 2.9-2.9 0-1.5-1.3-2.8-2.9-2.8-1.5 0-2.8 1.3-2.8 2.8zm35.3 56.5c0 1.6 1.3 2.9 2.9 2.9 1.5 0 2.8-1.3 2.8-2.9 0-1.5-1.3-2.8-2.8-2.8-1.6 0-2.9 1.3-2.9 2.8z"/>
	</g>
</svg>