<svg version="1.2" xmlns="http://www.w3.org/2000/svg" viewBox="0 0 150 150" width="150" height="150">
	<title>Vector Smart Object-pdf</title>
	<defs>
		<clipPath clipPathUnits="userSpaceOnUse" id="cp1">
			<path d="m0 0h150v150h-150z"/>
		</clipPath>
	</defs>
	<style>
		.s0 { fill: #3f3f3f } 
	</style>
	<g id="Page 1" clip-path="url(#cp1)">
		<path id="Path 1" fill-rule="evenodd" class="s0" d="m142.1 104q0.1 0.9 0.4 1.9c0 3.6-0.4 13.4-1.1 15.6-1.8 1.7-7 9.3-9 12.1-0.6 1.6-1.7 4-3.3 4.8q-0.6 0.3-1.2 0.3-0.5 0-1.1-0.3c-0.3-0.1-0.9-0.5-2.7-1.6-6.9-4.3-25.2-15.7-46.7-22.9-12.2-4.1-19.5-6.1-24.9-7.6-6.1-1.6-9.7-2.6-15.3-5.3-4.2-2-7.9-3.6-10.9-4.9-6.2-2.8-7.5-3.3-7.5-4.7 0-0.5 0-1.4 4.2-5.4 0.3-0.9 0.5-2.2 0.1-3.2-0.7-2.1-7-11.6-7-13.4 0-1.9 0.2-8.3 0.2-8.3l-8.8-10.8c0 0 2.4-1.8 3.5-2.4 5.1-6 17.2-18.9 37-28.1v-2c0 0 7.2-2 13.1-3.7 0 0 23.8-8 44.2 3.2 0 0 1.1-1.3 3.8 0.3 2.8 1.7 11.6 7.2 11.6 7.2l-0.9 1.8c0 0 9.5 8 16.2 23.6-2.3 0.2-5.1 0.7-8.1 1.1-4.5 0.7-9.6 1.5-13.6 1.5-5.3 0-17.1-2-24.8-3.4-3.5-0.6-5.9-1-7-1.2-2.5-0.2-6.5 0.8-9.4 3.4-2.4 2-3.7 4.5-3.8 7.4-0.4 7.1 3.7 13.9 10.5 22.5 6.2 7.9 9.5 7.7 14.9 7.6l0.9-0.1c2.5-0.1 6 2 9.8 4.2 4.4 2.6 9 5.3 13.2 5.4 8.8 0.2 16 2 23.3 5.9zm-12.5 29.5c-13.7-7.7-30.2-18-58.3-26.8-27.9-8.6-38.3-11.9-47.4-18-0.8 0.9-1.6 1.8-2.1 2.3 1 0.6 3.3 1.6 5.5 2.6 3 1.3 6.7 2.9 11 5 5.3 2.5 8.9 3.5 14.9 5.1 5.3 1.5 12.7 3.5 25 7.6 21.8 7.4 40.3 18.9 47.3 23.2 1.1 0.7 2.1 1.4 2.3 1.5 0.4-0.1 1.1-1.1 1.8-2.5zm-1.3-79.6c3.4-0.6 6.6-1.1 9-1.2 0.4 0.9 0.8 2.3 0.9 4.3 0.4 4.2 4.3 40.2 4.3 42.2 0 0.8-0.2 1.6-0.3 2.4-7.3-3.7-14.7-5.5-23.5-5.7-3.6-0.1-7.9-2.6-12.1-5-4.1-2.4-7.9-4.6-11.1-4.6l-1 0.1c-5 0.1-7.3 0.2-12.6-6.5-6.3-8-10.4-14.5-10-20.8q0.1-3.3 2.8-5.6c2.6-2.1 5.9-2.9 7.5-2.7 1 0.1 3.5 0.6 6.8 1.1 7.8 1.4 19.7 3.5 25.2 3.5 4.3 0 9.5-0.8 14.1-1.5zm-40.9 6.9c0-2.3-1.8-4.1-4.1-4.1-2.3 0-4.1 1.8-4.1 4.1 0 2.3 1.8 4.1 4.1 4.1 2.3 0 4.1-1.8 4.1-4.1z"/>
	</g>
</svg>