<svg version="1.2" xmlns="http://www.w3.org/2000/svg" viewBox="0 0 150 150" width="150" height="150">
	<title>Vector Smart Object-pdf</title>
	<defs>
		<clipPath clipPathUnits="userSpaceOnUse" id="cp1">
			<path d="m0 0h150v150h-150z"/>
		</clipPath>
	</defs>
	<style>
		.s0 { fill: #3f3f3f } 
	</style>
	<g id="Page 1" clip-path="url(#cp1)">
		<path id="Path 1" fill-rule="evenodd" class="s0" d="m139.8 139.8c-1.8 1.8-4.1 2.7-6.5 2.7-2.3 0-4.7-0.9-6.5-2.7l-27.1-27.1c-10.1 7.4-22.1 11.1-34.1 11.1-14.8 0-29.7-5.7-41.1-17.1-22.7-22.7-22.7-59.5 0-82.2 11.4-11.3 26.3-17 41.1-17 14.9 0 29.8 5.7 41.1 17 20.5 20.5 22.5 52.5 6 75.2l27.1 27.1c3.6 3.6 3.6 9.4 0 13zm-74.2-28.9c12.1 0 23.5-4.7 32.1-13.2 17.6-17.7 17.6-46.4 0-64.1-8.6-8.5-20-13.3-32.1-13.3-12.1 0-23.4 4.8-32 13.3-17.6 17.7-17.6 46.4 0 64.1 8.6 8.5 19.9 13.2 32 13.2z"/>
	</g>
</svg>